<svg id="visual" viewBox="0 0 900 800" width="900" height="800" xmlns="http://www.w3.org/2000/svg" xmlns:xlink="http://www.w3.org/1999/xlink" version="1.1"><rect x="0" y="0" width="900" height="800" fill="#001220"></rect><path d="M0 556L21.5 553.3C43 550.7 86 545.3 128.8 549.3C171.7 553.3 214.3 566.7 257.2 564.8C300 563 343 546 385.8 531.7C428.7 517.3 471.3 505.7 514.2 508.3C557 511 600 528 642.8 541.5C685.7 555 728.3 565 771.2 562.7C814 560.3 857 545.7 878.5 538.3L900 531L900 801L878.5 801C857 801 814 801 771.2 801C728.3 801 685.7 801 642.8 801C600 801 557 801 514.2 801C471.3 801 428.7 801 385.8 801C343 801 300 801 257.2 801C214.3 801 171.7 801 128.8 801C86 801 43 801 21.5 801L0 801Z" fill="#fa7268"></path><path d="M0 549L21.5 558.5C43 568 86 587 128.8 585.3C171.7 583.7 214.3 561.3 257.2 565.2C300 569 343 599 385.8 612.5C428.7 626 471.3 623 514.2 618.8C557 614.7 600 609.3 642.8 612.5C685.7 615.7 728.3 627.3 771.2 625.2C814 623 857 607 878.5 599L900 591L900 801L878.5 801C857 801 814 801 771.2 801C728.3 801 685.7 801 642.8 801C600 801 557 801 514.2 801C471.3 801 428.7 801 385.8 801C343 801 300 801 257.2 801C214.3 801 171.7 801 128.8 801C86 801 43 801 21.5 801L0 801Z" fill="#ef5f67"></path><path d="M0 659L21.5 656.5C43 654 86 649 128.8 645.8C171.7 642.7 214.3 641.3 257.2 634.8C300 628.3 343 616.7 385.8 611.8C428.7 607 471.3 609 514.2 609.2C557 609.3 600 607.7 642.8 614.7C685.7 621.7 728.3 637.3 771.2 642.3C814 647.3 857 641.7 878.5 638.8L900 636L900 801L878.5 801C857 801 814 801 771.2 801C728.3 801 685.7 801 642.8 801C600 801 557 801 514.2 801C471.3 801 428.7 801 385.8 801C343 801 300 801 257.2 801C214.3 801 171.7 801 128.8 801C86 801 43 801 21.5 801L0 801Z" fill="#e34c67"></path><path d="M0 678L21.5 676.7C43 675.3 86 672.7 128.8 679.2C171.7 685.7 214.3 701.3 257.2 707.2C300 713 343 709 385.8 697C428.7 685 471.3 665 514.2 662C557 659 600 673 642.8 683.2C685.7 693.3 728.3 699.7 771.2 705.7C814 711.7 857 717.3 878.5 720.2L900 723L900 801L878.5 801C857 801 814 801 771.2 801C728.3 801 685.7 801 642.8 801C600 801 557 801 514.2 801C471.3 801 428.7 801 385.8 801C343 801 300 801 257.2 801C214.3 801 171.7 801 128.8 801C86 801 43 801 21.5 801L0 801Z" fill="#d53867"></path><path d="M0 707L21.5 716.3C43 725.7 86 744.3 128.8 748C171.7 751.7 214.3 740.3 257.2 733.8C300 727.3 343 725.7 385.8 721.2C428.7 716.7 471.3 709.3 514.2 710.8C557 712.3 600 722.7 642.8 727.8C685.7 733 728.3 733 771.2 735.5C814 738 857 743 878.5 745.5L900 748L900 801L878.5 801C857 801 814 801 771.2 801C728.3 801 685.7 801 642.8 801C600 801 557 801 514.2 801C471.3 801 428.7 801 385.8 801C343 801 300 801 257.2 801C214.3 801 171.7 801 128.8 801C86 801 43 801 21.5 801L0 801Z" fill="#c62368"></path></svg>