<svg id="visual" viewBox="0 0 900 800" width="900" height="800" xmlns="http://www.w3.org/2000/svg" xmlns:xlink="http://www.w3.org/1999/xlink" version="1.1"><g stroke-width="1" stroke-linejoin="bevel"><path d="M500 394L403 322L387 416Z" fill="#19435d" stroke="#19435d"></path><path d="M500 394L472 266L403 322Z" fill="#246688" stroke="#246688"></path><path d="M326 325L331 429L387 416Z" fill="#246688" stroke="#246688"></path><path d="M387 416L369 480L500 394Z" fill="#205a7a" stroke="#205a7a"></path><path d="M313 182L326 325L403 322Z" fill="#081a28" stroke="#081a28"></path><path d="M403 322L326 325L387 416Z" fill="#205a7a" stroke="#205a7a"></path><path d="M331 429L369 480L387 416Z" fill="#277297" stroke="#277297"></path><path d="M500 394L578 287L472 266Z" fill="#15384f" stroke="#15384f"></path><path d="M578 287L514 212L472 266Z" fill="#19435d" stroke="#19435d"></path><path d="M472 266L404 171L403 322Z" fill="#19435d" stroke="#19435d"></path><path d="M588 492L611 430L500 394Z" fill="#277297" stroke="#277297"></path><path d="M500 394L611 430L578 287Z" fill="#112e42" stroke="#112e42"></path><path d="M369 480L538 530L500 394Z" fill="#297ea6" stroke="#297ea6"></path><path d="M538 530L588 492L500 394Z" fill="#246688" stroke="#246688"></path><path d="M514 212L404 171L472 266Z" fill="#297ea6" stroke="#297ea6"></path><path d="M331 429L296 530L369 480Z" fill="#0c2435" stroke="#0c2435"></path><path d="M369 480L480 589L538 530Z" fill="#205a7a" stroke="#205a7a"></path><path d="M209 506L296 530L331 429Z" fill="#15384f" stroke="#15384f"></path><path d="M412 629L480 589L369 480Z" fill="#0c2435" stroke="#0c2435"></path><path d="M597 623L661 531L588 492Z" fill="#1d4e6b" stroke="#1d4e6b"></path><path d="M404 171L313 182L403 322Z" fill="#246688" stroke="#246688"></path><path d="M326 325L178 360L331 429Z" fill="#246688" stroke="#246688"></path><path d="M296 530L412 629L369 480Z" fill="#081a28" stroke="#081a28"></path><path d="M578 287L587 168L514 212Z" fill="#277297" stroke="#277297"></path><path d="M486 107L421 104L404 171Z" fill="#112e42" stroke="#112e42"></path><path d="M663 168L587 168L578 287Z" fill="#112e42" stroke="#112e42"></path><path d="M215 589L282 584L296 530Z" fill="#081a28" stroke="#081a28"></path><path d="M296 530L282 584L412 629Z" fill="#297ea6" stroke="#297ea6"></path><path d="M180 332L178 360L326 325Z" fill="#297ea6" stroke="#297ea6"></path><path d="M313 182L180 332L326 325Z" fill="#1d4e6b" stroke="#1d4e6b"></path><path d="M178 360L209 506L331 429Z" fill="#15384f" stroke="#15384f"></path><path d="M597 623L538 530L480 589Z" fill="#081a28" stroke="#081a28"></path><path d="M597 623L588 492L538 530Z" fill="#297ea6" stroke="#297ea6"></path><path d="M588 492L661 531L611 430Z" fill="#297ea6" stroke="#297ea6"></path><path d="M611 430L700 288L578 287Z" fill="#00101c" stroke="#00101c"></path><path d="M486 107L404 171L514 212Z" fill="#297ea6" stroke="#297ea6"></path><path d="M404 171L293 97L313 182Z" fill="#246688" stroke="#246688"></path><path d="M587 168L486 107L514 212Z" fill="#19435d" stroke="#19435d"></path><path d="M727 364L700 288L611 430Z" fill="#277297" stroke="#277297"></path><path d="M661 531L727 364L611 430Z" fill="#277297" stroke="#277297"></path><path d="M470 688L597 623L480 589Z" fill="#0c2435" stroke="#0c2435"></path><path d="M327 670L409 671L412 629Z" fill="#205a7a" stroke="#205a7a"></path><path d="M412 629L470 688L480 589Z" fill="#277297" stroke="#277297"></path><path d="M180 332L139 319L178 360Z" fill="#277297" stroke="#277297"></path><path d="M178 360L134 393L209 506Z" fill="#1d4e6b" stroke="#1d4e6b"></path><path d="M172 163L139 319L180 332Z" fill="#1d4e6b" stroke="#1d4e6b"></path><path d="M139 319L134 393L178 360Z" fill="#081a28" stroke="#081a28"></path><path d="M700 288L663 168L578 287Z" fill="#205a7a" stroke="#205a7a"></path><path d="M587 168L636 115L486 107Z" fill="#081a28" stroke="#081a28"></path><path d="M771 214L663 168L700 288Z" fill="#297ea6" stroke="#297ea6"></path><path d="M209 506L215 589L296 530Z" fill="#00101c" stroke="#00101c"></path><path d="M282 584L327 670L412 629Z" fill="#112e42" stroke="#112e42"></path><path d="M121 569L215 589L209 506Z" fill="#205a7a" stroke="#205a7a"></path><path d="M409 671L470 688L412 629Z" fill="#081a28" stroke="#081a28"></path><path d="M230 706L327 670L282 584Z" fill="#081a28" stroke="#081a28"></path><path d="M378 800L472 800L470 688Z" fill="#15384f" stroke="#15384f"></path><path d="M421 104L293 97L404 171Z" fill="#00101c" stroke="#00101c"></path><path d="M313 182L172 163L180 332Z" fill="#0c2435" stroke="#0c2435"></path><path d="M382 0L293 97L421 104Z" fill="#081a28" stroke="#081a28"></path><path d="M663 168L636 115L587 168Z" fill="#15384f" stroke="#15384f"></path><path d="M664 662L708 577L597 623Z" fill="#112e42" stroke="#112e42"></path><path d="M597 623L708 577L661 531Z" fill="#205a7a" stroke="#205a7a"></path><path d="M661 531L782 392L727 364Z" fill="#081a28" stroke="#081a28"></path><path d="M0 420L122 499L134 393Z" fill="#246688" stroke="#246688"></path><path d="M134 393L122 499L209 506Z" fill="#081a28" stroke="#081a28"></path><path d="M180 137L172 163L313 182Z" fill="#297ea6" stroke="#297ea6"></path><path d="M835 522L782 392L661 531Z" fill="#19435d" stroke="#19435d"></path><path d="M727 364L801 334L700 288Z" fill="#297ea6" stroke="#297ea6"></path><path d="M663 168L664 73L636 115Z" fill="#205a7a" stroke="#205a7a"></path><path d="M293 97L180 137L313 182Z" fill="#081a28" stroke="#081a28"></path><path d="M626 733L664 662L597 623Z" fill="#0c2435" stroke="#0c2435"></path><path d="M782 392L801 334L727 364Z" fill="#081a28" stroke="#081a28"></path><path d="M801 334L771 214L700 288Z" fill="#00101c" stroke="#00101c"></path><path d="M122 499L121 569L209 506Z" fill="#19435d" stroke="#19435d"></path><path d="M215 589L230 706L282 584Z" fill="#1d4e6b" stroke="#1d4e6b"></path><path d="M789 83L664 73L663 168Z" fill="#277297" stroke="#277297"></path><path d="M566 0L505 0L486 107Z" fill="#246688" stroke="#246688"></path><path d="M505 0L382 0L421 104Z" fill="#277297" stroke="#277297"></path><path d="M505 0L421 104L486 107Z" fill="#246688" stroke="#246688"></path><path d="M232 0L127 122L180 137Z" fill="#081a28" stroke="#081a28"></path><path d="M566 0L486 107L636 115Z" fill="#112e42" stroke="#112e42"></path><path d="M96 725L230 706L215 589Z" fill="#081a28" stroke="#081a28"></path><path d="M378 800L470 688L409 671Z" fill="#15384f" stroke="#15384f"></path><path d="M664 73L566 0L636 115Z" fill="#112e42" stroke="#112e42"></path><path d="M232 0L180 137L293 97Z" fill="#0c2435" stroke="#0c2435"></path><path d="M180 137L127 122L172 163Z" fill="#19435d" stroke="#19435d"></path><path d="M172 163L80 176L139 319Z" fill="#1d4e6b" stroke="#1d4e6b"></path><path d="M0 313L0 420L134 393Z" fill="#246688" stroke="#246688"></path><path d="M122 499L0 587L121 569Z" fill="#277297" stroke="#277297"></path><path d="M382 0L293 0L293 97Z" fill="#297ea6" stroke="#297ea6"></path><path d="M470 688L626 733L597 623Z" fill="#15384f" stroke="#15384f"></path><path d="M575 800L626 733L470 688Z" fill="#297ea6" stroke="#297ea6"></path><path d="M708 577L835 522L661 531Z" fill="#205a7a" stroke="#205a7a"></path><path d="M782 392L900 428L801 334Z" fill="#277297" stroke="#277297"></path><path d="M664 662L778 603L708 577Z" fill="#0c2435" stroke="#0c2435"></path><path d="M796 710L778 603L664 662Z" fill="#297ea6" stroke="#297ea6"></path><path d="M127 122L80 176L172 163Z" fill="#00101c" stroke="#00101c"></path><path d="M778 603L835 522L708 577Z" fill="#1d4e6b" stroke="#1d4e6b"></path><path d="M378 800L409 671L327 670Z" fill="#15384f" stroke="#15384f"></path><path d="M298 800L378 800L327 670Z" fill="#00101c" stroke="#00101c"></path><path d="M293 0L232 0L293 97Z" fill="#15384f" stroke="#15384f"></path><path d="M0 89L0 177L80 176Z" fill="#246688" stroke="#246688"></path><path d="M763 0L665 0L664 73Z" fill="#246688" stroke="#246688"></path><path d="M664 73L665 0L566 0Z" fill="#112e42" stroke="#112e42"></path><path d="M0 313L134 393L139 319Z" fill="#205a7a" stroke="#205a7a"></path><path d="M200 800L298 800L230 706Z" fill="#112e42" stroke="#112e42"></path><path d="M80 176L0 313L139 319Z" fill="#205a7a" stroke="#205a7a"></path><path d="M472 800L575 800L470 688Z" fill="#19435d" stroke="#19435d"></path><path d="M626 733L666 800L664 662Z" fill="#297ea6" stroke="#297ea6"></path><path d="M200 800L230 706L96 725Z" fill="#205a7a" stroke="#205a7a"></path><path d="M230 706L298 800L327 670Z" fill="#277297" stroke="#277297"></path><path d="M0 420L0 479L122 499Z" fill="#15384f" stroke="#15384f"></path><path d="M771 214L789 83L663 168Z" fill="#1d4e6b" stroke="#1d4e6b"></path><path d="M900 195L789 83L771 214Z" fill="#081a28" stroke="#081a28"></path><path d="M900 279L771 214L801 334Z" fill="#0c2435" stroke="#0c2435"></path><path d="M835 522L900 428L782 392Z" fill="#205a7a" stroke="#205a7a"></path><path d="M900 428L900 279L801 334Z" fill="#15384f" stroke="#15384f"></path><path d="M835 522L900 510L900 428Z" fill="#205a7a" stroke="#205a7a"></path><path d="M900 564L900 510L835 522Z" fill="#0c2435" stroke="#0c2435"></path><path d="M900 564L835 522L778 603Z" fill="#277297" stroke="#277297"></path><path d="M0 89L80 176L127 122Z" fill="#19435d" stroke="#19435d"></path><path d="M80 176L0 177L0 313Z" fill="#00101c" stroke="#00101c"></path><path d="M575 800L666 800L626 733Z" fill="#297ea6" stroke="#297ea6"></path><path d="M96 725L215 589L121 569Z" fill="#205a7a" stroke="#205a7a"></path><path d="M0 479L0 587L122 499Z" fill="#15384f" stroke="#15384f"></path><path d="M0 587L96 725L121 569Z" fill="#297ea6" stroke="#297ea6"></path><path d="M666 800L796 710L664 662Z" fill="#297ea6" stroke="#297ea6"></path><path d="M900 279L900 195L771 214Z" fill="#1d4e6b" stroke="#1d4e6b"></path><path d="M900 0L763 0L789 83Z" fill="#00101c" stroke="#00101c"></path><path d="M789 83L763 0L664 73Z" fill="#1d4e6b" stroke="#1d4e6b"></path><path d="M900 694L900 564L778 603Z" fill="#19435d" stroke="#19435d"></path><path d="M62 0L0 89L127 122Z" fill="#19435d" stroke="#19435d"></path><path d="M232 0L62 0L127 122Z" fill="#15384f" stroke="#15384f"></path><path d="M900 195L900 77L789 83Z" fill="#15384f" stroke="#15384f"></path><path d="M0 733L73 800L96 725Z" fill="#1d4e6b" stroke="#1d4e6b"></path><path d="M96 725L73 800L200 800Z" fill="#19435d" stroke="#19435d"></path><path d="M832 800L900 694L796 710Z" fill="#19435d" stroke="#19435d"></path><path d="M796 710L900 694L778 603Z" fill="#1d4e6b" stroke="#1d4e6b"></path><path d="M0 587L0 733L96 725Z" fill="#297ea6" stroke="#297ea6"></path><path d="M62 0L0 0L0 89Z" fill="#205a7a" stroke="#205a7a"></path><path d="M666 800L832 800L796 710Z" fill="#246688" stroke="#246688"></path><path d="M900 77L900 0L789 83Z" fill="#0c2435" stroke="#0c2435"></path><path d="M0 733L0 800L73 800Z" fill="#00101c" stroke="#00101c"></path><path d="M832 800L900 800L900 694Z" fill="#15384f" stroke="#15384f"></path></g></svg>